# xmcd CD database file
#
# Track frame offsets:
#	150
#	38808
#	76912
#	108849
#	130882
#	160671
#	193100
#	222043
#
# Disc length: 3250 seconds
#
# Revision: 0
# Processed by: cddbd v1.5.1PL2 Copyright (c) Steve Scherf et al.
# Submitted via: CDex 1.51
#
DISCID=5f0cb008
DTITLE=erb_gut feat. peter schärli - radius
DYEAR=2004
DGENRE=Jazz
TTITLE0=Pelicula
TTITLE1=Radius
TTITLE2=Sofa
TTITLE3=Tor!
TTITLE4=Hektik (für Vera and Moira, feat. the Panda-Drummer)
TTITLE5=St. Karli
TTITLE6=Oak
TTITLE7=Ypsilon
EXTD=YEAR: 2004
EXTT0=
EXTT1=
EXTT2=
EXTT3=
EXTT4=
EXTT5=
EXTT6=
EXTT7=
PLAYORDER=
